<?xml version="1.0" standalone="no"?>
<!DOCTYPE svg PUBLIC "-//W3C//DTD SVG 20010904//EN"
 "http://www.w3.org/TR/2001/REC-SVG-20010904/DTD/svg10.dtd">
<svg version="1.0" xmlns="http://www.w3.org/2000/svg"
 width="140.000000pt" height="154.000000pt" viewBox="0 0 140.000000 154.000000"
 preserveAspectRatio="xMidYMid meet">

<g transform="translate(0.000000,154.000000) scale(0.100000,-0.100000)"
fill="#000000" stroke="none">
<path d="M790 1359 c0 -61 4 -109 8 -107 4 2 47 27 96 57 81 50 86 56 69 69
-24 17 -159 92 -167 92 -3 0 -6 -50 -6 -111z"/>
<path d="M680 1256 c0 -21 21 -31 31 -15 14 22 11 29 -11 29 -11 0 -20 -6 -20
-14z"/>
<path d="M691 1221 c-54 -7 -91 -34 -91 -67 0 -21 37 -54 60 -54 27 0 25 13
-2 25 -15 7 -23 19 -23 35 0 33 38 52 87 44 42 -6 69 3 47 17 -8 5 -16 8 -19
7 -3 0 -29 -4 -59 -7z"/>
<path d="M310 1091 l0 -111 83 51 c45 28 86 55 90 59 5 4 -18 22 -50 40 -32
18 -73 42 -90 52 l-33 20 0 -111z"/>
<path d="M691 1143 c2 -103 17 -128 18 -30 1 52 -3 87 -9 87 -6 0 -9 -25 -9
-57z"/>
<path d="M982 1148 l-93 -52 68 -43 c37 -24 80 -51 96 -59 l27 -15 0 111 c0
60 -1 110 -2 110 -2 0 -45 -24 -96 -52z"/>
<path d="M720 1101 c0 -5 7 -11 15 -15 8 -3 15 -15 15 -26 0 -21 -21 -33 -73
-45 -49 -10 -55 -75 -7 -88 23 -6 28 8 5 17 -8 3 -15 15 -15 26 0 21 21 33 73
45 39 8 56 48 32 75 -19 21 -45 27 -45 11z"/>
<path d="M702 965 c0 -16 2 -22 5 -12 2 9 2 23 0 30 -3 6 -5 -1 -5 -18z"/>
<path d="M718 919 c6 -7 12 -22 12 -34 0 -12 -6 -27 -12 -35 -11 -12 -10 -12
5 0 22 16 20 71 -3 78 -12 4 -13 2 -2 -9z"/>
<path d="M505 869 c-44 -28 -84 -55 -88 -59 -5 -4 32 -30 82 -58 l91 -50 0
109 c0 60 -1 109 -2 109 -2 0 -39 -23 -83 -51z"/>
<path d="M790 810 c0 -60 2 -110 4 -110 13 0 185 103 181 109 -5 9 -170 111
-179 111 -3 0 -6 -49 -6 -110z"/>
<path d="M149 581 c-50 -16 -71 -33 -85 -68 -31 -72 11 -130 114 -159 98 -27
112 -34 112 -60 0 -72 -133 -70 -161 3 -7 20 -14 24 -32 19 -12 -3 -30 -6 -41
-6 -16 0 -17 -5 -12 -32 3 -18 18 -45 33 -60 41 -43 80 -51 203 -43 l108 7 17
44 17 44 79 0 80 0 20 -45 c20 -45 20 -45 69 -45 l50 0 0 138 c0 78 4 131 9
122 4 -8 18 -51 29 -95 11 -44 26 -99 32 -122 11 -42 11 -43 55 -43 50 0 42
-16 86 165 12 50 26 94 30 100 5 5 9 -51 9 -128 l0 -137 40 0 c28 0 40 4 40
14 0 11 8 10 37 -5 48 -25 145 -25 193 -1 60 29 70 65 70 240 l0 152 -45 0
-45 0 0 -148 c0 -176 -5 -187 -74 -187 -76 0 -80 11 -84 186 l-4 150 -91 -3
-91 -3 -23 -85 c-13 -47 -28 -102 -34 -124 -6 -21 -13 -36 -15 -33 -3 3 -20
58 -38 123 l-33 119 -66 3 -66 3 -3 -103 -3 -103 -44 103 -43 102 -47 0 -48 0
-38 -97 c-21 -54 -41 -102 -45 -107 -5 -4 -21 1 -37 13 -15 11 -61 29 -100 40
-87 24 -93 27 -93 51 0 14 11 23 38 30 45 14 87 1 97 -29 5 -17 15 -21 51 -21
33 0 44 4 44 15 0 30 -30 75 -61 91 -37 19 -123 27 -160 15z m401 -233 c0 -4
-22 -8 -50 -8 -27 0 -50 1 -50 3 0 5 42 112 47 121 5 8 53 -96 53 -116z"/>
</g>
</svg>
